<?xml version="1.0" encoding="utf-8"?>
<!-- Generator: Adobe Illustrator 25.3.1, SVG Export Plug-In . SVG Version: 6.00 Build 0)  -->
<svg version="1.1" id="Layer_1" xmlns="http://www.w3.org/2000/svg" xmlns:xlink="http://www.w3.org/1999/xlink" x="0px" y="0px"
	 viewBox="0 0 48 48" style="enable-background:new 0 0 48 48;" xml:space="preserve">
<path d="M7,19.5c-3,3.6-5.9,8-6,11.2c0,1.2,0.4,2.3,1.3,3.1c1.4,1.2,2.9,1.6,4.4,1.6c2.2,0,4.4-0.9,6.1-1.6
	C15.7,32.8,47.3,19,47.3,19c0.3-0.2,0.2-0.3-0.1-0.2c-0.2,0-34.5,9.3-34.5,9.3c-0.7,0.2-1.3,0.3-2,0.3c-2.6,0-5-1.4-5-4.5
	C5.8,22.7,6.2,21.2,7,19.5"/>
</svg>
