<?xml version="1.0" encoding="utf-8"?>
<!-- Generator: Adobe Illustrator 25.3.1, SVG Export Plug-In . SVG Version: 6.00 Build 0)  -->
<svg version="1.1" id="Layer_1" xmlns="http://www.w3.org/2000/svg" xmlns:xlink="http://www.w3.org/1999/xlink" x="0px" y="0px"
	 viewBox="0 0 500 500" style="enable-background:new 0 0 500 500;" xml:space="preserve">
<style type="text/css">
	.st0{fill:#FFFFFF;}
</style>
<path class="st0" d="M250,9.6C117.3,9.6,9.6,117.3,9.6,250c0,132.8,107.6,240.4,240.4,240.4S490.4,382.8,490.4,250
	C490.4,117.3,382.7,9.6,250,9.6z M317.3,433.1c-1.4-18.8-2.9-42.1-3-51.5c-0.6-7.2-1.4-25.7-18.9-37.4
	c69.4-5.8,102.4-44.2,104.8-94.9c2-28.9-9.5-54.3-29.9-74.7c1-21.9-0.7-47.9-2.1-59.3c-15.7-4.5-52.2,14.8-62.4,23
	c-21.5-8.4-74.2-11.3-106.2,0c-22.7-16-48.5-25.8-62.6-23.1c-13,28.8-4.6,56-2.1,59.3c-16.7,15.3-40.1,34.1-33.7,73.5
	c10.2,57.8,50.8,89,116.3,96.6c-14,2.9-16.3,13.3-17.5,17.8c-44,18.1-56.6-11.2-62.1-18.9c-18.5-22.8-35-16.2-36.1-15.9
	c-1,0.4-1.7,1.8-1.6,2.5c0.9,4.9,11,9.9,11.5,10.3c13.6,10.2,18.7,28.5,21.8,33.7c19.5,32.1,65,18.8,65.4,19.1
	c0,2.8-0.3,26.5-0.6,44.9C115.7,415.6,54.7,340,54.7,250c0-107.9,87.4-195.3,195.3-195.3S445.3,142.1,445.3,250
	C445.3,334.2,392,405.7,317.3,433.1z"/>
</svg>
