<?xml version="1.0" encoding="utf-8"?>
<!-- Generator: Adobe Illustrator 25.3.1, SVG Export Plug-In . SVG Version: 6.00 Build 0)  -->
<svg version="1.1" id="Layer_1" xmlns="http://www.w3.org/2000/svg" xmlns:xlink="http://www.w3.org/1999/xlink" x="0px" y="0px"
	 viewBox="0 0 500 500" style="enable-background:new 0 0 500 500;" xml:space="preserve">
<style type="text/css">
	.st0{fill:#FFFFFF;}
</style>
<g>
	<g>
		<g>
			<path class="st0" d="M480.8,304.8v172.9H380.6V316.4c0-40.5-14.5-68.2-50.8-68.2c-27.7,0-44.1,18.6-51.4,36.6
				c-2.6,6.4-3.3,15.4-3.3,24.4v168.3H174.8c0,0,1.3-273.1,0-301.4h100.2v42.7c-0.2,0.3-0.5,0.7-0.7,1h0.7v-1
				c13.3-20.5,37.1-49.8,90.3-49.8C431.3,169.1,480.8,212.2,480.8,304.8L480.8,304.8z M19.2,477.6h100.2V176.2H19.2V477.6z
				 M19.2,477.6 M122.4,73.9c0,28.5-23.1,51.6-51.6,51.6c-28.5,0-51.6-23.1-51.6-51.6s23.1-51.6,51.6-51.6
				C99.3,22.4,122.4,45.4,122.4,73.9z"/>
		</g>
	</g>
</g>
</svg>
