<?xml version="1.0" encoding="utf-8"?>
<!-- Generator: Adobe Illustrator 25.3.1, SVG Export Plug-In . SVG Version: 6.00 Build 0)  -->
<svg version="1.1" id="Layer_1" xmlns="http://www.w3.org/2000/svg" xmlns:xlink="http://www.w3.org/1999/xlink" x="0px" y="0px"
	 viewBox="0 0 500 500" style="enable-background:new 0 0 500 500;" xml:space="preserve">
<style type="text/css">
	.st0{fill:#FFFFFF;}
</style>
<g>
	<g>
		<g>
			<path class="st0" d="M250,479.4c-61.3,0-118.9-23.9-162.2-67.2C44.5,368.9,20.6,311.3,20.6,250S44.5,131.1,87.8,87.8
				C131.1,44.5,188.7,20.6,250,20.6s118.9,23.9,162.2,67.2c43.3,43.3,67.2,100.9,67.2,162.2s-23.9,118.9-67.2,162.2
				C368.9,455.5,311.3,479.4,250,479.4z M250,39C133.7,39,39,133.7,39,250s94.6,211,211,211h0c116.3,0,211-94.6,211-211
				C461,133.7,366.3,39,250,39z"/>
		</g>
	</g>
	<g>
		<g>
			<path class="st0" d="M303.4,131.3H196.6c-36.2,0-65.6,29.4-65.6,65.6v106.8c0,36.2,29.4,65.6,65.6,65.6h106.8
				c36.2,0,65.6-29.4,65.6-65.6V196.9C369,160.7,339.7,131.3,303.4,131.3z M349.8,303.5c0,25.8-20.9,46.7-46.7,46.7H196.9
				c-25.8,0-46.7-20.9-46.7-46.7V197.2c0-25.8,20.9-46.7,46.7-46.7h106.3c25.8,0,46.7,20.9,46.7,46.7V303.5z"/>
		</g>
		<g>
			<path class="st0" d="M250,187.6c-34.7,0-62.7,28.1-62.7,62.7c0,34.7,28.1,62.7,62.7,62.7c34.7,0,62.7-28.1,62.7-62.7
				C312.7,215.7,284.7,187.6,250,187.6z M250,291.3c-22.6,0-40.9-18.3-40.9-40.9c0-22.6,18.3-40.9,40.9-40.9s40.9,18.3,40.9,40.9
				C290.9,272.9,272.6,291.3,250,291.3z"/>
		</g>
		<g>
			<path class="st0" d="M329,185.5c0,7.8-6.3,14.1-14.1,14.1c-7.8,0-14.1-6.3-14.1-14.1c0-7.8,6.3-14.1,14.1-14.1
				C322.7,171.4,329,177.7,329,185.5z"/>
		</g>
	</g>
</g>
</svg>
