<?xml version="1.0" encoding="utf-8"?>
<!-- Generator: Adobe Illustrator 25.3.1, SVG Export Plug-In . SVG Version: 6.00 Build 0)  -->
<svg version="1.1" id="Layer_1" xmlns="http://www.w3.org/2000/svg" xmlns:xlink="http://www.w3.org/1999/xlink" x="0px" y="0px"
	 viewBox="0 0 500 500" style="enable-background:new 0 0 500 500;" xml:space="preserve">
<style type="text/css">
	.st0{fill:#FFFFFF;}
</style>
<g>
	<path class="st0" d="M250,494.4c-65.3,0-126.7-25.4-172.8-71.6C31,376.7,5.6,315.3,5.6,250c0-65.3,25.4-126.7,71.6-172.8
		S184.7,5.6,250,5.6S376.7,31,422.8,77.2s71.6,107.5,71.6,172.8c0,65.3-25.4,126.7-71.6,172.8S315.3,494.4,250,494.4z M250,25.6
		C126.3,25.6,25.6,126.3,25.6,250S126.3,474.4,250,474.4h0c123.7,0,224.4-100.7,224.4-224.4S373.7,25.6,250,25.6z"/>
	<g>
		<path class="st0" d="M305.8,256.5h-37v119.1h-54.9V256.5h-26.1v-46.6h26.1v-30.2c0-21.6,10.2-55.4,55.4-55.4l40.6,0.2v45.3h-29.5
			c-4.8,0-11.6,2.4-11.6,12.7v27.4h41.8L305.8,256.5z M312.2,257.9"/>
	</g>
</g>
</svg>
