<?xml version="1.0" encoding="utf-8"?>
<!-- Generator: Adobe Illustrator 25.3.1, SVG Export Plug-In . SVG Version: 6.00 Build 0)  -->
<svg version="1.1" id="Layer_1" xmlns="http://www.w3.org/2000/svg" xmlns:xlink="http://www.w3.org/1999/xlink" x="0px" y="0px"
	 viewBox="0 0 500 192.71" style="enable-background:new 0 0 500 192.71;" xml:space="preserve">
<style type="text/css">
	.st0{fill:#FFFFFF;}
</style>
<path class="st0" d="M83.82,25.05c-29.54,34.68-57.84,77.68-58.14,109.83c-0.12,12.09,3.74,22.65,13.02,30.65
	c13.32,11.51,28,15.57,42.62,15.6c21.34,0.03,42.56-8.58,59.15-15.23c28-11.18,337.11-145.41,337.11-145.41
	c2.97-1.5,2.44-3.36-1.31-2.43c-1.55,0.38-336.51,91.17-336.51,91.17c-6.36,1.8-12.9,2.73-19.5,2.79
	c-25.74,0.15-48.68-14.14-48.45-44.25C71.87,55.98,75.44,41.77,83.82,25.05"/>
</svg>
